<?xml version="1.0" encoding="UTF-8" standalone="no"?>
<!-- Created with Inkscape (http://www.inkscape.org/) -->

<svg
   width="46.431126mm"
   height="36.118801mm"
   viewBox="0 0 46.431126 36.118801"
   version="1.1"
   id="svg1"
   inkscape:version="1.3 (0e150ed6c4, 2023-07-21)"
   sodipodi:docname="ai-seo.svg"
   xmlns:inkscape="http://www.inkscape.org/namespaces/inkscape"
   xmlns:sodipodi="http://sodipodi.sourceforge.net/DTD/sodipodi-0.dtd"
   xmlns="http://www.w3.org/2000/svg"
   xmlns:svg="http://www.w3.org/2000/svg">
  <sodipodi:namedview
     id="namedview1"
     pagecolor="#ffffff"
     bordercolor="#000000"
     borderopacity="0.25"
     inkscape:showpageshadow="2"
     inkscape:pageopacity="0.0"
     inkscape:pagecheckerboard="0"
     inkscape:deskcolor="#d1d1d1"
     inkscape:document-units="mm"
     inkscape:zoom="3.9910213"
     inkscape:cx="152.84308"
     inkscape:cy="79.303009"
     inkscape:window-width="2256"
     inkscape:window-height="1424"
     inkscape:window-x="-11"
     inkscape:window-y="-11"
     inkscape:window-maximized="1"
     inkscape:current-layer="layer1" />
  <defs
     id="defs1" />
  <g
     inkscape:label="Layer 1"
     inkscape:groupmode="layer"
     id="layer1"
     transform="translate(-58.029393,-130.40217)">
    <path
       style="font-size:50.8px;font-family:Dorsa;-inkscape-font-specification:Dorsa;fill:#90b98b;fill-opacity:0.478431;stroke-width:0.264583"
       d="m 58.029393,166.26697 3.9624,-35.56 h 0.7112 l 3.5052,35.56 h -1.778 l -1.0668,-11.684 h -3.3528 l -1.27,11.684 z m 2.0828,-12.446 h 3.2004 l -1.4224,-15.7988 z m 9.80437,-23.114 v 35.56 h -1.778 v -35.56 z m 7.21363,2.8956 q 0,-3.2004 3.81,-3.2004 3.8608,0 3.8608,3.3528 v 7.112 h -1.778 v -7.0612 q 0,-1.4732 -0.4064,-2.1336 -0.4064,-0.7112 -1.6256,-0.7112 -1.2192,0 -1.6764,0.7112 -0.4064,0.6604 -0.4064,2.1336 v 6.096 q 0,1.9304 0.508,2.8448 0.7112,1.3716 1.7272,2.4892 1.0668,1.1176 1.6256,1.8796 0.5588,0.7112 1.016,1.6764 1.016,2.1336 1.016,5.0292 v 9.4996 q 0,3.2004 -3.8608,3.2004 -3.81,0 -3.81,-3.3528 v -7.0612 h 1.778 v 7.0104 q 0,1.4732 0.4064,2.1844 0.4064,0.6604 1.6256,0.6604 1.2192,0 1.6256,-0.6604 0.4572,-0.7112 0.4572,-2.1844 v -8.89 q 0,-2.8956 -0.508,-4.064 -0.7112,-1.7272 -1.778,-2.8956 -1.016,-1.1684 -1.5748,-1.8288 -0.5588,-0.6604 -1.016,-1.4224 -1.016,-1.778 -1.016,-3.8608 z m 17.576772,-2.8956 v 0.762 h -6.096 v 15.4432 h 5.08 v 0.762 h -5.08 v 17.8308 h 6.096 v 0.762 h -7.874 v -35.56 z m 9.753555,32.6644 q 0,3.1496 -3.8608,3.1496 -3.809996,0 -3.809996,-3.2512 v -29.718 q 0,-3.1496 3.809996,-3.1496 3.8608,0 3.8608,3.2512 z m -1.778,-29.5148 q 0,-1.524 -0.3556,-2.0828 -0.3556,-0.6096 -1.5748,-0.6096 -1.219196,0 -1.727196,0.5588 -0.4572,0.508 -0.4572,1.9812 v 29.4132 q 0,1.4732 0.3556,2.0828 0.3556,0.6096 1.574796,0.6096 1.2192,0 1.6764,-0.5588 0.508,-0.5588 0.508,-2.032 z"
       id="text1"
       aria-label="AI SEO" />
  </g>
</svg>
